<svg width="44" height="44" viewBox="0 0 44 44" fill="none" xmlns="http://www.w3.org/2000/svg">
<path d="M25.6667 34.8333H34.8333V9.16667H9.16667V34.8333H22V25.6667H18.3333V22H22V18.9677C22 16.5165 22.2567 15.6273 22.7333 14.7308C23.2029 13.8438 23.9286 13.1188 24.816 12.65C25.5163 12.2742 26.3872 12.0487 27.9088 11.9515C28.512 11.913 29.293 11.9607 30.2518 12.0982V15.5815H29.3333C27.6522 15.5815 26.9573 15.6603 26.543 15.8822C26.2958 16.0093 26.0945 16.2106 25.9673 16.4578C25.7473 16.8722 25.6667 17.2828 25.6667 18.9658V22H30.25L29.3333 25.6667H25.6667V34.8333ZM7.33333 5.5H36.6667C37.1529 5.5 37.6192 5.69315 37.963 6.03697C38.3068 6.38079 38.5 6.8471 38.5 7.33333V36.6667C38.5 37.1529 38.3068 37.6192 37.963 37.963C37.6192 38.3068 37.1529 38.5 36.6667 38.5H7.33333C6.8471 38.5 6.38079 38.3068 6.03697 37.963C5.69315 37.6192 5.5 37.1529 5.5 36.6667V7.33333C5.5 6.8471 5.69315 6.38079 6.03697 6.03697C6.38079 5.69315 6.8471 5.5 7.33333 5.5Z" fill="white"/>
</svg>
