<svg width="44" height="44" viewBox="0 0 44 44" fill="none" xmlns="http://www.w3.org/2000/svg">
<path d="M38 12.0003V32.0003C38 33.1353 37.135 34.0003 36 34.0003H34V15.8493L22 24.4693L10 15.8493V34.0003H8C6.865 34.0003 6 33.1353 6 32.0003V12.0003C6 11.4323 6.214 10.9323 6.573 10.5783C6.75997 10.3912 6.98265 10.2436 7.22779 10.1443C7.47294 10.045 7.73554 9.99603 8 10.0003H8.667L22 19.6673L35.333 10.0003H36C36.568 10.0003 37.068 10.2143 37.427 10.5783C37.786 10.9323 38 11.4323 38 12.0003Z" fill="white"/>
</svg>
