<svg width="44" height="44" viewBox="0 0 44 44" fill="none" xmlns="http://www.w3.org/2000/svg">
<path d="M22 13.75C20.3683 13.75 18.7733 14.2339 17.4165 15.1404C16.0598 16.0469 15.0024 17.3354 14.378 18.8429C13.7536 20.3504 13.5902 22.0092 13.9085 23.6095C14.2269 25.2098 15.0126 26.6798 16.1664 27.8336C17.3202 28.9874 18.7902 29.7732 20.3905 30.0915C21.9908 30.4098 23.6496 30.2464 25.1571 29.622C26.6646 28.9976 27.9531 27.9402 28.8596 26.5835C29.7661 25.2267 30.25 23.6317 30.25 22C30.25 19.812 29.3808 17.7135 27.8336 16.1664C26.2865 14.6192 24.188 13.75 22 13.75ZM22 27.5C20.9122 27.5 19.8488 27.1774 18.9444 26.5731C18.0399 25.9687 17.3349 25.1098 16.9187 24.1048C16.5024 23.0998 16.3935 21.9939 16.6057 20.927C16.8179 19.8601 17.3417 18.8801 18.1109 18.1109C18.8801 17.3417 19.8601 16.8179 20.927 16.6057C21.9939 16.3935 23.0998 16.5024 24.1048 16.9187C25.1098 17.3349 25.9687 18.0399 26.5731 18.9444C27.1774 19.8488 27.5 20.9122 27.5 22C27.4955 23.4573 26.9145 24.8536 25.8841 25.8841C24.8536 26.9145 23.4573 27.4955 22 27.5ZM29.5625 4.8125H14.4375C11.8848 4.8125 9.43663 5.82656 7.6316 7.6316C5.82656 9.43663 4.8125 11.8848 4.8125 14.4375V29.5625C4.8125 32.1152 5.82656 34.5634 7.6316 36.3684C9.43663 38.1734 11.8848 39.1875 14.4375 39.1875H29.5625C32.1152 39.1875 34.5634 38.1734 36.3684 36.3684C38.1734 34.5634 39.1875 32.1152 39.1875 29.5625V14.4375C39.1875 11.8848 38.1734 9.43663 36.3684 7.6316C34.5634 5.82656 32.1152 4.8125 29.5625 4.8125ZM36.4375 29.5625C36.4375 30.4653 36.2597 31.3593 35.9142 32.1934C35.5687 33.0276 35.0623 33.7855 34.4239 34.4239C33.7855 35.0623 33.0276 35.5687 32.1934 35.9142C31.3593 36.2597 30.4653 36.4375 29.5625 36.4375H14.4375C13.5347 36.4375 12.6407 36.2597 11.8066 35.9142C10.9724 35.5687 10.2145 35.0623 9.57614 34.4239C8.93774 33.7855 8.43133 33.0276 8.08583 32.1934C7.74033 31.3593 7.5625 30.4653 7.5625 29.5625V14.4375C7.5625 12.6141 8.28683 10.8655 9.57614 9.57614C10.8655 8.28683 12.6141 7.5625 14.4375 7.5625H29.5625C30.4653 7.5625 31.3593 7.74033 32.1934 8.08583C33.0276 8.43133 33.7855 8.93774 34.4239 9.57614C35.0623 10.2145 35.5687 10.9724 35.9142 11.8066C36.2597 12.6407 36.4375 13.5347 36.4375 14.4375V29.5625ZM33 13.0625C33 13.4704 32.879 13.8692 32.6524 14.2084C32.4258 14.5475 32.1037 14.8119 31.7268 14.968C31.3499 15.1241 30.9352 15.165 30.5351 15.0854C30.135 15.0058 29.7675 14.8094 29.4791 14.5209C29.1906 14.2325 28.9942 13.865 28.9146 13.4649C28.835 13.0648 28.8759 12.6501 29.032 12.2732C29.1881 11.8963 29.4525 11.5742 29.7916 11.3476C30.1308 11.121 30.5296 11 30.9375 11C31.4845 11 32.0091 11.2173 32.3959 11.6041C32.7827 11.9909 33 12.5155 33 13.0625Z" fill="white"/>
</svg>
